{
	"asset":{
		"generator":"Khronos glTF Blender I/O v3.5.30",
		"version":"2.0"
	},
	"scene":0,
	"scenes":[
		{
			"name":"Scene",
			"nodes":[
				0,
				1
			]
		}
	],
	"nodes":[
		{
			"camera":0,
			"name":"Camera",
			"rotation":[
				-0.00029505358543246984,
				0.37348952889442444,
				0.00011879621160915121,
				0.9276343584060669
			],
			"translation":[
				14.866666793823242,
				1.4476100206375122,
				15.101938247680664
			]
		},
		{
			"mesh":0,
			"name":"Cat",
			"rotation":[
				0.6155634522438049,
				0.34796780347824097,
				-0.34796780347824097,
				0.6155635714530945
			],
			"scale":[
				0.19661058485507965,
				0.19661058485507965,
				0.19661058485507965
			],
			"translation":[
				2.6933465003967285,
				0,
				1.3136457204818726
			]
		}
	],
	"cameras":[
		{
			"name":"Camera",
			"perspective":{
				"aspectRatio":1.7777777777777777,
				"yfov":0.39959652046304894,
				"zfar":100,
				"znear":0.10000000149011612
			},
			"type":"perspective"
		}
	],
	"materials":[
		{
			"doubleSided":true,
			"name":"CAT.001",
			"pbrMetallicRoughness":{
				"baseColorTexture":{
					"index":0
				},
				"metallicFactor":0,
				"roughnessFactor":0.5
			}
		},
		{
			"doubleSided":true,
			"name":"orange-tail.002",
			"pbrMetallicRoughness":{
				"baseColorFactor":[
					1,
					0.7011010050773621,
					0.4564110040664673,
					1
				],
				"metallicFactor":0,
				"roughnessFactor":0.5
			}
		}
	],
	"meshes":[
		{
			"name":"Sphere.002",
			"primitives":[
				{
					"attributes":{
						"POSITION":0,
						"TEXCOORD_0":1,
						"NORMAL":2
					},
					"indices":3,
					"material":0
				},
				{
					"attributes":{
						"POSITION":4,
						"TEXCOORD_0":5,
						"NORMAL":6
					},
					"indices":7,
					"material":1
				}
			]
		}
	],
	"textures":[
		{
			"sampler":0,
			"source":0
		}
	],
	"images":[
		{
			"mimeType":"image/png",
			"name":"cat.png",
			"uri":"cat_png.png"
		}
	],
	"accessors":[
		{
			"bufferView":0,
			"componentType":5126,
			"count":84,
			"max":[
				1.6675519943237305,
				1.626729965209961,
				0.07510499656200409
			],
			"min":[
				-1.6675519943237305,
				-1.626729965209961,
				-4.229750156402588
			],
			"type":"VEC3"
		},
		{
			"bufferView":1,
			"componentType":5126,
			"count":84,
			"type":"VEC2"
		},
		{
			"bufferView":2,
			"componentType":5126,
			"count":84,
			"type":"VEC3"
		},
		{
			"bufferView":3,
			"componentType":5123,
			"count":408,
			"type":"SCALAR"
		},
		{
			"bufferView":4,
			"componentType":5126,
			"count":192,
			"max":[
				0.20808300375938416,
				-1.3993380069732666,
				-0.7160800099372864
			],
			"min":[
				-0.16827499866485596,
				-2.563507080078125,
				-3.4446840286254883
			],
			"type":"VEC3"
		},
		{
			"bufferView":5,
			"componentType":5126,
			"count":192,
			"type":"VEC2"
		},
		{
			"bufferView":6,
			"componentType":5126,
			"count":192,
			"type":"VEC3"
		},
		{
			"bufferView":7,
			"componentType":5123,
			"count":924,
			"type":"SCALAR"
		}
	],
	"bufferViews":[
		{
			"buffer":0,
			"byteLength":1008,
			"byteOffset":0,
			"target":34962
		},
		{
			"buffer":0,
			"byteLength":672,
			"byteOffset":1008,
			"target":34962
		},
		{
			"buffer":0,
			"byteLength":1008,
			"byteOffset":1680,
			"target":34962
		},
		{
			"buffer":0,
			"byteLength":816,
			"byteOffset":2688,
			"target":34963
		},
		{
			"buffer":0,
			"byteLength":2304,
			"byteOffset":3504,
			"target":34962
		},
		{
			"buffer":0,
			"byteLength":1536,
			"byteOffset":5808,
			"target":34962
		},
		{
			"buffer":0,
			"byteLength":2304,
			"byteOffset":7344,
			"target":34962
		},
		{
			"buffer":0,
			"byteLength":1848,
			"byteOffset":9648,
			"target":34963
		}
	],
	"samplers":[
		{
			"magFilter":9729,
			"minFilter":9987
		}
	],
	"buffers":[
		{
			"byteLength":11496,
			"uri":"cat.bin"
		}
	]
}
