{
	"asset":{
		"generator":"Khronos glTF Blender I/O v5.0.21",
		"version":"2.0"
	},
	"scene":0,
	"scenes":[
		{
			"name":"Scene",
			"nodes":[
				0
			]
		}
	],
	"nodes":[
		{
			"mesh":0,
			"name":"Cube",
			"rotation":[
				0,
				0,
				-0.09434811025857925,
				0.9955393671989441
			],
			"scale":[
				0.583972692489624,
				0.2925882041454315,
				0.2925882339477539
			],
			"translation":[
				0,
				2.006517171859741,
				0
			]
		}
	],
	"materials":[
		{
			"doubleSided":true,
			"name":"yellow",
			"pbrMetallicRoughness":{
				"baseColorFactor":[
					0.8026384115219116,
					0.6236163377761841,
					0.09284153580665588,
					1
				],
				"metallicFactor":0,
				"roughnessFactor":0.5
			}
		}
	],
	"meshes":[
		{
			"name":"Cube",
			"primitives":[
				{
					"attributes":{
						"POSITION":0,
						"NORMAL":1,
						"TEXCOORD_0":2
					},
					"indices":3,
					"material":0
				}
			]
		}
	],
	"accessors":[
		{
			"bufferView":0,
			"componentType":5126,
			"count":208,
			"max":[
				1.1908012628555298,
				6.815891742706299,
				1.000000238418579
			],
			"min":[
				-1.1912736892700195,
				-6.864357948303223,
				-1.000000238418579
			],
			"type":"VEC3"
		},
		{
			"bufferView":1,
			"componentType":5126,
			"count":208,
			"type":"VEC3"
		},
		{
			"bufferView":2,
			"componentType":5126,
			"count":208,
			"type":"VEC2"
		},
		{
			"bufferView":3,
			"componentType":5123,
			"count":276,
			"type":"SCALAR"
		}
	],
	"bufferViews":[
		{
			"buffer":0,
			"byteLength":2496,
			"byteOffset":0,
			"target":34962
		},
		{
			"buffer":0,
			"byteLength":2496,
			"byteOffset":2496,
			"target":34962
		},
		{
			"buffer":0,
			"byteLength":1664,
			"byteOffset":4992,
			"target":34962
		},
		{
			"buffer":0,
			"byteLength":552,
			"byteOffset":6656,
			"target":34963
		}
	],
	"buffers":[
		{
			"byteLength":7208,
			"uri":"bolt.bin"
		}
	]
}
