{
	"asset":{
		"generator":"Khronos glTF Blender I/O v3.5.30",
		"version":"2.0"
	},
	"scene":0,
	"scenes":[
		{
			"name":"Scene",
			"nodes":[
				0,
				1
			]
		}
	],
	"nodes":[
		{
			"camera":0,
			"name":"Camera",
			"rotation":[
				-0.00029505358543246984,
				0.37348952889442444,
				0.00011879621160915121,
				0.9276343584060669
			],
			"translation":[
				14.866666793823242,
				1.4476100206375122,
				15.101938247680664
			]
		},
		{
			"mesh":0,
			"name":"Object_5.001",
			"rotation":[
				0,
				0,
				-0.800115704536438,
				0.5998457074165344
			],
			"scale":[
				0.009084630757570267,
				0.009084630757570267,
				0.009084629826247692
			],
			"translation":[
				13.920284271240234,
				1.082366943359375,
				13.532576560974121
			]
		}
	],
	"cameras":[
		{
			"name":"Camera",
			"perspective":{
				"aspectRatio":1.7777777777777777,
				"yfov":0.39959652046304894,
				"zfar":100,
				"znear":0.10000000149011612
			},
			"type":"perspective"
		}
	],
	"materials":[
		{
			"doubleSided":true,
			"name":"Material_46.001",
			"pbrMetallicRoughness":{
				"baseColorTexture":{
					"index":0
				},
				"metallicFactor":0,
				"roughnessFactor":0.6000000238418579
			}
		}
	],
	"meshes":[
		{
			"name":"Object_0.001",
			"primitives":[
				{
					"attributes":{
						"POSITION":0,
						"TEXCOORD_0":1,
						"NORMAL":2
					},
					"indices":3,
					"material":0
				}
			]
		}
	],
	"textures":[
		{
			"sampler":0,
			"source":0
		}
	],
	"images":[
		{
			"mimeType":"image/png",
			"name":"hand",
			"uri":"hand.png"
		}
	],
	"accessors":[
		{
			"bufferView":0,
			"componentType":5126,
			"count":1578,
			"max":[
				35.647186279296875,
				45.583953857421875,
				34.55519104003906
			],
			"min":[
				-22.47698974609375,
				-49.946136474609375,
				-27.812789916992188
			],
			"type":"VEC3"
		},
		{
			"bufferView":1,
			"componentType":5126,
			"count":1578,
			"type":"VEC2"
		},
		{
			"bufferView":2,
			"componentType":5126,
			"count":1578,
			"type":"VEC3"
		},
		{
			"bufferView":3,
			"componentType":5123,
			"count":2358,
			"type":"SCALAR"
		}
	],
	"bufferViews":[
		{
			"buffer":0,
			"byteLength":18936,
			"byteOffset":0,
			"target":34962
		},
		{
			"buffer":0,
			"byteLength":12624,
			"byteOffset":18936,
			"target":34962
		},
		{
			"buffer":0,
			"byteLength":18936,
			"byteOffset":31560,
			"target":34962
		},
		{
			"buffer":0,
			"byteLength":4716,
			"byteOffset":50496,
			"target":34963
		}
	],
	"samplers":[
		{
			"magFilter":9729,
			"minFilter":9987
		}
	],
	"buffers":[
		{
			"byteLength":55212,
			"uri":"hand.bin"
		}
	]
}
